<svg width="48" height="48" viewBox="0 0 48 48" fill="none" xmlns="http://www.w3.org/2000/svg">
<rect width="48" height="48" rx="3" fill="#29B6F6"/>
<path d="M41.925 10.4694L36.306 38.5729C36.306 38.5729 36.0645 39.8571 34.4385 39.8571C33.5745 39.8571 33.129 39.4545 33.129 39.4545L20.958 29.5611L15.003 26.6209L7.3605 24.6299C7.3605 24.6299 6 24.2449 6 23.1429C6 22.2245 7.3995 21.7866 7.3995 21.7866L39.3735 9.34384C39.3735 9.34384 40.35 8.99854 41.0625 9C41.5005 9 42 9.18368 42 9.7347C42 10.102 41.925 10.4694 41.925 10.4694Z" fill="white"/>
<path d="M25 32.7658L19.852 37.8199C19.852 37.8199 19.6281 37.9922 19.3291 37.9997C19.2254 38.0027 19.1142 37.9862 19 37.9353L20.4485 29L25 32.7658Z" fill="#B0BEC5"/>
<path d="M34.9922 14.4375C34.7439 14.1066 34.2854 14.0464 33.9621 14.2976L14.5714 26.1751C14.5714 26.1751 17.666 35.037 18.1377 36.5711C18.6109 38.1067 18.99 38.1428 18.99 38.1428L20.4066 29.1712L34.8541 15.4903C35.1773 15.2391 35.2376 14.7683 34.9922 14.4375Z" fill="#CFD8DC"/>
</svg>
