<svg width="48" height="48" viewBox="0 0 48 48" fill="none" xmlns="http://www.w3.org/2000/svg">
<rect width="48" height="48" rx="3" fill="#6534BB"/>
<path d="M24.0062 4.57996C22.8337 4.58668 21.658 4.65722 20.4721 4.80168C18.2045 5.08051 15.9571 5.5441 13.8004 6.53511C10.3705 8.11066 7.93827 10.7847 7.23281 14.6715C6.93382 16.3109 6.69194 17.9738 6.55421 19.6468C6.28883 22.8953 6.45343 26.1539 7.37391 29.3553C8.09953 31.8782 9.43656 34.1458 11.778 35.6172C12.7691 36.2387 14.0759 36.5411 14.7578 36.8568C14.9493 36.9475 14.9963 37.0013 15.0064 37.0147C15.0165 37.0248 15.0434 37.0483 15.04 37.2499C15.0165 39.3058 15.04 43.2833 15.04 43.2833L15.0434 44.14H16.5786L16.8272 43.8981C16.8272 43.8981 20.7274 40.1457 22.1384 38.6003C22.3937 38.3249 22.5247 38.1703 22.5516 38.1536C22.5751 38.1368 22.5348 38.1267 22.7968 38.12C24.6478 38.083 26.4955 38.0125 28.3431 37.9117C30.7787 37.7773 33.2612 37.5455 35.6498 36.5478C37.7292 35.6777 39.466 34.2567 40.5175 32.1268C41.5925 29.9432 42.167 27.6286 42.382 25.2334C42.738 21.2458 42.6137 17.2515 41.5119 13.3143C40.8635 11.0065 39.5601 9.05466 37.5612 7.67731C35.1694 6.03122 32.4718 5.41309 29.8313 5.02005C28.2894 4.79161 26.7373 4.64044 25.1786 4.59341C24.7889 4.58333 24.3992 4.5766 24.0062 4.57996ZM25.1316 6.3134C26.613 6.35372 28.0945 6.49816 29.5794 6.71989C32.1258 7.0995 34.5277 7.67731 36.587 9.09497C38.2566 10.2439 39.298 11.7959 39.8557 13.7746C40.8837 17.4565 41.0147 21.229 40.6687 25.0822C40.4705 27.3028 39.943 29.3957 38.9722 31.3676C38.1155 33.1078 36.7785 34.213 34.9846 34.9622C32.9018 35.8322 30.6376 36.064 28.2524 36.195C26.4249 36.2958 24.5941 36.363 22.7632 36.4C22.303 36.4101 21.8528 36.531 21.5337 36.7661C21.2145 37.0013 21.0701 37.2197 20.8719 37.4347C19.8641 38.5365 17.8552 40.4749 16.76 41.5364C16.7533 40.2532 16.7432 38.7011 16.76 37.27C16.7667 36.83 16.6659 36.3798 16.414 36.0237C16.162 35.6676 15.816 35.4526 15.4834 35.2981C14.5126 34.8479 13.2427 34.5053 12.6918 34.1593C10.7669 32.9499 9.67509 31.1358 9.02672 28.8783C8.1768 25.9254 8.01555 22.8852 8.26751 19.7912C8.40188 18.1854 8.63368 16.5763 8.92595 14.9806C9.53736 11.6178 11.4589 9.50145 14.5159 8.09722C16.4476 7.21035 18.5102 6.77363 20.6838 6.50823C22.1653 6.32683 23.6467 6.26973 25.1316 6.3134ZM25.4944 10.6C24.7855 10.6 24.0969 10.6806 23.4284 10.8284C22.9681 10.9359 22.6759 11.3961 22.78 11.8597C22.8841 12.3233 23.3477 12.6122 23.8113 12.5081C24.3522 12.3838 24.9166 12.32 25.4944 12.32C29.6936 12.32 33.0798 15.7062 33.0798 19.9021C33.0798 20.4833 33.016 21.0476 32.8917 21.5918C32.7876 22.0521 33.0765 22.5157 33.5401 22.6198C34.0037 22.7239 34.4639 22.4317 34.568 21.9681C34.7192 21.3029 34.7998 20.6143 34.7998 19.9021C34.7998 14.7757 30.6241 10.6 25.4944 10.6ZM16.9145 12.3233C16.7734 12.3166 16.629 12.3267 16.4778 12.3603C14.9157 12.7063 13.3637 13.8384 13.32 15.8607C13.3637 16.1429 13.3603 16.4453 13.4645 16.7006C13.9751 17.9503 14.4185 19.2403 15.0568 20.4228C18.1642 26.1673 22.864 30.1616 28.8537 32.6979C29.5693 33.0003 30.3084 33.0641 31.0306 32.7618C32.025 32.3486 32.8682 31.7103 33.4292 30.7932C34.1985 29.5334 34.2086 28.66 32.9421 27.7294C32.1123 27.118 31.296 26.4898 30.4562 25.8918C29.1762 24.9848 27.7922 24.8269 26.8381 26.4193C26.7877 26.4999 26.7138 26.5671 26.65 26.6343C26.1595 27.155 25.5582 27.2826 24.9199 27.0206C22.4978 26.0229 20.6266 24.4137 19.4979 22.0185C18.8327 20.6109 19.0141 19.9054 20.2571 18.9682C20.3814 18.8775 20.499 18.78 20.6132 18.6759C21.1574 18.1787 21.3019 17.5875 20.9794 16.919C20.2504 15.3938 19.2795 14.0333 18.05 12.8608C17.7174 12.545 17.3378 12.3468 16.9145 12.3233ZM25.4809 13.18C25.1013 13.18 24.7251 13.2102 24.3555 13.274C24.0431 13.3143 23.7777 13.5226 23.6635 13.8149C23.5493 14.1105 23.6064 14.4431 23.808 14.685C24.0129 14.9235 24.3354 15.0343 24.6445 14.9672C24.9132 14.9235 25.1954 14.9 25.4809 14.9C28.2759 14.9 30.52 17.144 30.52 19.939C30.52 20.2246 30.4965 20.5068 30.4528 20.7755C30.3856 21.0846 30.4965 21.4071 30.735 21.612C30.9769 21.8136 31.3095 21.8707 31.6051 21.7565C31.8974 21.6423 32.1056 21.3769 32.146 21.0644C32.2098 20.6949 32.24 20.3187 32.24 19.9391C32.24 16.2169 29.2031 13.18 25.4809 13.18ZM25.36 15.76C25.0509 15.7566 24.762 15.9178 24.6041 16.1866C24.4496 16.4553 24.4496 16.7846 24.6041 17.0533C24.762 17.3221 25.0509 17.4833 25.36 17.48C26.7944 17.48 27.94 18.6255 27.94 20.06C27.9366 20.369 28.0979 20.6579 28.3666 20.8158C28.6354 20.9703 28.9646 20.9703 29.2333 20.8158C29.5021 20.6579 29.6633 20.369 29.66 20.06C29.66 17.695 27.725 15.76 25.36 15.76Z" fill="white"/>
</svg>
