<svg width="48" height="48" viewBox="0 0 48 48" fill="none" xmlns="http://www.w3.org/2000/svg">
<rect width="48" height="48" rx="3" fill="#40C351"/>
<path d="M24.0001 4.67994C13.3401 4.67994 4.68005 13.3399 4.68005 23.9999C4.68005 27.4264 5.61975 30.6241 7.18693 33.4155L4.71123 42.2535C4.63074 42.5413 4.7092 42.8502 4.91729 43.0647C5.12537 43.2792 5.43174 43.367 5.72185 43.2953L14.9372 41.0116C17.6451 42.4572 20.7178 43.3199 24 43.3199C34.66 43.3199 43.32 34.6599 43.32 23.9999C43.32 13.3399 34.66 4.67994 24.0001 4.67994ZM24.0001 6.35994C33.7521 6.35994 41.64 14.2479 41.64 23.9999C41.64 33.752 33.7521 41.64 24.0001 41.64C20.8736 41.64 17.9454 40.8248 15.3999 39.4005C15.2137 39.2965 14.9949 39.2671 14.7879 39.3185L6.71771 41.3184L8.88169 33.5976C8.94426 33.3771 8.91404 33.1406 8.79802 32.943C7.25102 30.3198 6.36005 27.2676 6.36005 23.9999C6.36005 14.2479 14.248 6.35994 24.0001 6.35994ZM16.9798 13.9199C16.4413 13.9199 15.6723 14.1203 15.0406 14.801C14.6612 15.2098 13.0801 16.7503 13.0801 19.4587C13.0801 22.2824 15.0384 24.7189 15.2752 25.0319H15.2769V25.0335C15.2544 25.004 15.5774 25.4718 16.0086 26.0327C16.4397 26.5936 17.0427 27.3302 17.8001 28.1278C19.315 29.7228 21.445 31.5662 24.0886 32.6936C25.3061 33.212 26.2665 33.5251 26.9942 33.7535C28.3427 34.1769 29.571 34.1125 30.4936 33.9766C31.1843 33.8749 31.9438 33.5433 32.6954 33.0677C33.4469 32.5921 34.1834 32.0007 34.5082 31.1022C34.7409 30.4581 34.8592 29.8628 34.902 29.373C34.9234 29.1281 34.9261 28.9119 34.9102 28.7118C34.8943 28.5117 34.9113 28.3584 34.7248 28.0523C34.3337 27.4102 33.8908 27.3934 33.4287 27.1647C33.172 27.0376 32.4409 26.6807 31.7077 26.3313C30.9753 25.9823 30.3411 25.6732 29.9506 25.5339C29.7038 25.4452 29.4026 25.3174 28.9679 25.3666C28.5332 25.4158 28.1038 25.7295 27.8539 26.1C27.617 26.4511 26.6632 27.577 26.3724 27.9079C26.3685 27.9056 26.3938 27.9172 26.2789 27.8603C25.9192 27.6824 25.4794 27.531 24.8286 27.1877C24.1777 26.8444 23.3635 26.3374 22.4726 25.552V25.5503C21.1466 24.383 20.2178 22.9173 19.9247 22.425C19.9445 22.4015 19.9224 22.4299 19.9641 22.3889L19.9657 22.3872C20.2652 22.0923 20.5306 21.7399 20.7549 21.4816C21.0729 21.1153 21.2132 20.7924 21.3652 20.4907C21.6682 19.8894 21.4995 19.2277 21.3242 18.8796V18.8779C21.3363 18.902 21.2294 18.6661 21.1142 18.3939C20.9987 18.121 20.8514 17.7672 20.6942 17.3899C20.3797 16.6353 20.0285 15.7889 19.8197 15.2932V15.2915C19.5737 14.7076 19.2409 14.287 18.8058 14.084C18.3707 13.8811 17.9863 13.9388 17.9707 13.938H17.9691C17.6586 13.9237 17.3179 13.9199 16.9798 13.9199ZM16.9798 15.5999C17.3037 15.5999 17.623 15.6039 17.8904 15.6163C18.1655 15.6301 18.1483 15.6312 18.0954 15.6065C18.0417 15.5814 18.1146 15.5733 18.271 15.9445C18.4754 16.4299 18.8283 17.2793 19.1438 18.0363C19.3015 18.4147 19.4492 18.7699 19.5671 19.0485C19.685 19.3271 19.7489 19.4827 19.823 19.631V19.6326L19.8247 19.6342C19.8973 19.7777 19.8909 19.6858 19.8657 19.7359C19.6884 20.0878 19.6644 20.1741 19.4851 20.3807C19.212 20.6952 18.9335 21.046 18.7861 21.1912C18.6572 21.3179 18.4245 21.5152 18.2792 21.9016C18.1337 22.2885 18.2016 22.8194 18.4351 23.2157C18.7459 23.7434 19.7702 25.4105 21.3619 26.812C22.3644 27.6957 23.2983 28.2805 24.0444 28.6741C24.7904 29.0676 25.3981 29.2975 25.534 29.3648C25.8569 29.5246 26.2098 29.6487 26.6201 29.5994C27.0305 29.5501 27.3842 29.3012 27.6094 29.0465L27.6111 29.0449C27.9108 28.7051 28.8014 27.6882 29.2287 27.0613C29.2468 27.0677 29.2409 27.0628 29.3829 27.1138V27.1155H29.3846C29.4494 27.1386 30.2616 27.5021 30.9858 27.8472C31.71 28.1923 32.445 28.5509 32.6839 28.6692C33.0285 28.8397 33.1914 28.9508 33.2335 28.9513C33.2363 29.0252 33.2392 29.1053 33.2286 29.227C33.1991 29.5643 33.1089 30.0313 32.9283 30.5313C32.8399 30.776 32.3791 31.2808 31.7979 31.6485C31.2168 32.0163 30.5095 32.2761 30.2475 32.3146C29.46 32.4307 28.5249 32.473 27.4979 32.1506C26.7858 31.9271 25.8979 31.6377 24.7482 31.1481C22.4165 30.1537 20.4347 28.4616 19.0191 26.9711C18.3113 26.2259 17.7442 25.5321 17.3407 25.0073C16.9381 24.4834 16.7622 24.2108 16.6156 24.018L16.614 24.0163C16.3537 23.6722 14.7601 21.4555 14.7601 19.4587C14.7601 17.3455 15.7416 16.5168 16.2727 15.9445C16.5515 15.644 16.8564 15.5999 16.9798 15.5999Z" fill="white"/>
</svg>
